<svg width="609" height="636" viewBox="0 0 609 636" fill="none" xmlns="http://www.w3.org/2000/svg">
<path d="M51 6.10352e-05H68V636H51V6.10352e-05Z" fill="#FFFEFE"/>
<path d="M471 6.10352e-05V17.0001L51 17.0001L51 6.10352e-05H471Z" fill="#FFFEFE"/>
<path d="M471 636L456.712 636L456.712 -1.35328e-05L471 -1.4782e-05L471 636Z" fill="#FFFEFE"/>
<path d="M118 636L118 619L471 619L471 636L118 636Z" fill="#FFFEFE"/>
<path d="M118 64.0001L128.726 64.0001L128.726 635L118 635L118 64.0001Z" fill="#FFFEFE"/>
<path d="M383 64.0001L383 79.2627L118 79.2626L118 64.0001L383 64.0001Z" fill="#FFFEFE"/>
<path d="M118 58.0001L128.726 58.0001L128.726 629L118 629L118 58.0001Z" fill="#FFFEFE"/>
<path d="M383 58.0001L383 73.2627L118 73.2626L118 58.0001L383 58.0001Z" fill="#FFFEFE"/>
<rect x="61" y="289" width="12" height="548" transform="rotate(-90 61 289)" fill="white"/>
<rect x="127" y="260" width="12" height="482" transform="rotate(-90 127 260)" fill="white"/>
<rect x="51" y="318" width="12" height="497" transform="rotate(-90 51 318)" fill="white"/>
<rect y="615" width="12" height="471" transform="rotate(-90 0 615)" fill="white"/>
<path d="M346.512 476.141C345.851 473.495 346.299 470.693 347.753 468.386L384.573 409.934C389.266 402.484 400.601 404.297 402.736 412.839L419.488 479.859C420.149 482.505 419.701 485.307 418.247 487.614L381.427 546.066C376.734 553.516 365.399 551.703 363.264 543.161L346.512 476.141Z" fill="white"/>
<path d="M340.999 398.015C340.69 396.724 340.908 395.364 341.603 394.234L361.197 362.389C363.53 358.596 369.284 359.517 370.318 363.848L379.001 400.215C379.31 401.506 379.092 402.867 378.397 403.997L358.803 435.842C356.47 439.634 350.716 438.714 349.682 434.383L340.999 398.015Z" fill="white"/>
<path d="M378.354 362.878C378.169 362.103 378.3 361.287 378.717 360.609L392.465 338.264C393.866 335.988 397.318 336.54 397.938 339.139L404.031 364.658C404.216 365.432 404.086 366.249 403.669 366.927L389.92 389.272C388.52 391.548 385.067 390.996 384.447 388.397L378.354 362.878Z" fill="white"/>
</svg>
